<svg xmlns="http://www.w3.org/2000/svg" version="1.1" xmlns:xlink="http://www.w3.org/1999/xlink" xmlns:svgjs="http://svgjs.com/svgjs" height="73" width="373.96181127795705"><g id="SvgjsG1318" rel="mainfill" transform="translate(115.64963838824758,15.363154411315918)"><path fill="#00625a" d="M16.043 13.368892428191902 c-0.54153 -0.10154 -0.94768 -0.60923 -0.94768 -1.1508 l0 -2.5723 c0 -0.33846 0.16923 -0.67692 0.40615 -0.91384 c0.27077 -0.20308 0.64307 -0.30461 0.98153 -0.23692 c2.64 0.44 4.9077 1.6246 6.7692 3.5538 c0.94768 0.98153 1.7261 2.1323 2.3015 3.3846 c0.20308 0.33846 0.16923 0.77846 -0.067692 1.1169 c-0.20308 0.33846 -0.57538 0.57538 -0.98153 0.57538 l-2.8769 0 c-0.40615 0 -0.8123 -0.23692 -1.0154 -0.57538 c-0.27077 -0.40615 -0.54153 -0.77846 -0.87999 -1.1169 c-1.0154 -1.0492 -2.2338 -1.7261 -3.6892 -2.0646 z M12.591 8.731892428191902 c0.23692 0.23692 0.40615 0.57538 0.40615 0.91384 l0 2.5723 c0 0.54153 -0.40615 1.0492 -0.94768 1.1508 c-1.4892 0.33846 -2.6738 1.0154 -3.6892 2.0646 c-1.3877 1.4892 -2.0984 3.3507 -2.0984 5.6861 s0.71076 4.163 2.0984 5.6523 c1.0154 1.0831 2.2 1.7261 3.6892 2.0646 c0.54153 0.10154 0.94768 0.60923 0.94768 1.1508 l0 2.5723 c0 0.33846 -0.16923 0.67692 -0.44 0.91384 c-0.20308 0.16923 -0.47384 0.27077 -0.74461 0.27077 l-0.20308 0 c-2.64 -0.47384 -4.9415 -1.6584 -6.7692 -3.5877 c-2.3354 -2.4031 -3.52 -5.4492 -3.52 -9.0369 c0 -3.6215 1.1846 -6.6676 3.52 -9.0707 c1.8277 -1.9292 4.1292 -3.1138 6.7692 -3.5538 c0.33846 -0.067692 0.71076 0.033846 0.98153 0.23692 z M26.738 20.408892428191905 c0.033846 0.23692 0.033846 0.44 0.033846 0.71076 c0 0.54153 -0.033846 1.0831 -0.10154 1.7261 c-0.33846 2.8769 -1.4892 5.3138 -3.4184 7.3107 c-1.8615 1.9292 -4.1292 3.1138 -6.7692 3.5877 l-0.20308 0 c-0.27077 0 -0.54153 -0.10154 -0.77846 -0.27077 c-0.23692 -0.23692 -0.40615 -0.57538 -0.40615 -0.91384 l0 -2.5723 c0 -0.54153 0.40615 -1.0492 0.94768 -1.1508 c1.4554 -0.33846 2.6738 -0.98153 3.6892 -2.0646 c0.77846 -0.8123 1.3538 -1.76 1.6923 -2.8769 l-7.1753 0 c-0.67692 0 -1.1846 -0.50769 -1.1846 -1.1846 l0 -2.4031 c0 -0.64307 0.50769 -1.1846 1.1846 -1.1846 l11.305 0 c0.64307 0 1.1508 0.47384 1.1846 1.1169 l0 0.16923 z M41.90163179111736 8.461892428191902 c2.6738 0 4.8738 0.77846 6.4984 2.3015 c1.6584 1.5569 2.4708 3.6554 2.4708 6.1938 c0 2.5723 -0.8123 4.6369 -2.4708 6.1938 c-1.6246 1.5231 -3.8246 2.2677 -6.4984 2.2677 l-6.4646 0 l0 6.9046 c0 0.64307 -0.54153 1.1846 -1.1846 1.1846 l-2.5723 0 c-0.64307 0 -1.1846 -0.54153 -1.1846 -1.1846 l0 -10.492 c0 -0.64307 0.54153 -1.1846 1.1846 -1.1846 l10.018 0 c1.4892 0 2.5723 -0.30461 3.2492 -0.98153 c0.67692 -0.60923 0.98153 -1.5231 0.98153 -2.7077 s-0.30461 -2.0646 -0.98153 -2.7077 s-1.76 -0.98153 -3.2492 -0.98153 l-10.018 0 c-0.64307 0 -1.1846 -0.54153 -1.1846 -1.1846 l0 -2.4369 c0 -0.64307 0.54153 -1.1846 1.1846 -1.1846 l10.221 0 z M72.22714006056447 28.701292428191902 c0.67692 0 1.1846 0.54153 1.1846 1.2185 l0 2.4708 c0 0.64307 -0.50769 1.1846 -1.1846 1.1846 l-16.72 0 c-0.64307 0 -1.1846 -0.54153 -1.1846 -1.1846 l0 -2.4708 c0 -0.67692 0.54153 -1.2185 1.1846 -1.2185 l16.72 0 z M55.507240060564456 23.454892428191904 c-0.64307 0 -1.1846 -0.54153 -1.1846 -1.1846 l0 -2.5384 c0 -0.64307 0.54153 -1.1846 1.1846 -1.1846 l15.197 0 c0.67692 0 1.2185 0.54153 1.2185 1.1846 l0 2.5384 c0 0.64307 -0.54153 1.1846 -1.2185 1.1846 l-15.197 0 z M72.22714006056447 8.461892428191902 c0.67692 0 1.1846 0.54153 1.1846 1.1846 l0 2.4708 c0 0.67692 -0.50769 1.2185 -1.1846 1.2185 l-16.72 0 c-0.64307 0 -1.1846 -0.54153 -1.1846 -1.2185 l0 -2.4708 c0 -0.64307 0.54153 -1.1846 1.1846 -1.1846 l16.72 0 z M93.54957637387591 23.861392428191902 l5.1107 7.8184 c0.23692 0.3723 0.27077 0.8123 0.033846 1.2185 c-0.20308 0.3723 -0.60923 0.60923 -1.0154 0.60923 l-3.08 0 c-0.40615 0 -0.77846 -0.20308 -0.98153 -0.54153 l-5.1446 -8.1569 l-6.0246 0 l0 7.5138 c0 0.64307 -0.54153 1.1846 -1.1846 1.1846 l-2.5723 0 c-0.64307 0 -1.1846 -0.54153 -1.1846 -1.1846 l0 -11.135 c0 -0.64307 0.54153 -1.1846 1.1846 -1.1846 l10.425 0 c1.9631 0 3.2831 -0.54153 3.96 -1.6923 c0.23692 -0.3723 0.33846 -0.91384 0.33846 -1.5569 c0 -1.1169 -0.33846 -1.8954 -1.0492 -2.5046 c-0.74461 -0.67692 -1.7938 -0.98153 -3.1138 -0.98153 l-10.56 0 c-0.64307 0 -1.1846 -0.54153 -1.1846 -1.1846 l0 -2.4369 c0 -0.64307 0.54153 -1.1846 1.1846 -1.1846 l10.865 0 c2.6061 0 4.7384 0.74461 6.3292 2.2338 c1.6584 1.4892 2.4708 3.52 2.4708 6.0584 c0 3.2831 -1.4554 5.6523 -4.2307 6.8707 c-0.16923 0.067692 -0.3723 0.16923 -0.57538 0.23692 z M106.51301212530709 18.5138924281919 c0.67692 0 1.1846 0.54153 1.1846 1.2185 l0 12.658 c0 0.64307 -0.50769 1.1846 -1.1846 1.1846 l-2.5723 0 c-0.64307 0 -1.1846 -0.54153 -1.1846 -1.1846 l0 -12.658 c0 -0.67692 0.54153 -1.2185 1.1846 -1.2185 l2.5723 0 z M106.51301212530709 8.461892428191902 c0.67692 0 1.1846 0.54153 1.1846 1.1846 l0 6.2615 c0 0.67692 -0.50769 1.2185 -1.1846 1.2185 l-2.5723 0 c-0.64307 0 -1.1846 -0.54153 -1.1846 -1.2185 l0 -6.2615 c0 -0.64307 0.54153 -1.1846 1.1846 -1.1846 l2.5723 0 z  M136.3307844031105 23.861392428191902 l5.1107 7.8184 c0.23692 0.3723 0.27077 0.8123 0.033846 1.2185 c-0.20308 0.3723 -0.60923 0.60923 -1.0154 0.60923 l-3.08 0 c-0.40615 0 -0.77846 -0.20308 -0.98153 -0.54153 l-5.1446 -8.1569 l-6.0246 0 l0 7.5138 c0 0.64307 -0.54153 1.1846 -1.1846 1.1846 l-2.5723 0 c-0.64307 0 -1.1846 -0.54153 -1.1846 -1.1846 l0 -11.135 c0 -0.64307 0.54153 -1.1846 1.1846 -1.1846 l10.425 0 c1.9631 0 3.2831 -0.54153 3.96 -1.6923 c0.23692 -0.3723 0.33846 -0.91384 0.33846 -1.5569 c0 -1.1169 -0.33846 -1.8954 -1.0492 -2.5046 c-0.74461 -0.67692 -1.7938 -0.98153 -3.1138 -0.98153 l-10.56 0 c-0.64307 0 -1.1846 -0.54153 -1.1846 -1.1846 l0 -2.4369 c0 -0.64307 0.54153 -1.1846 1.1846 -1.1846 l10.865 0 c2.6061 0 4.7384 0.74461 6.3292 2.2338 c1.6584 1.4892 2.4708 3.52 2.4708 6.0584 c0 3.2831 -1.4554 5.6523 -4.2307 6.8707 c-0.16923 0.067692 -0.3723 0.16923 -0.57538 0.23692 z M163.44182015454163 28.701292428191902 c0.67692 0 1.1846 0.54153 1.1846 1.2185 l0 2.4708 c0 0.64307 -0.50769 1.1846 -1.1846 1.1846 l-16.72 0 c-0.64307 0 -1.1846 -0.54153 -1.1846 -1.1846 l0 -2.4708 c0 -0.67692 0.54153 -1.2185 1.1846 -1.2185 l16.72 0 z M146.72192015454164 23.454892428191904 c-0.64307 0 -1.1846 -0.54153 -1.1846 -1.1846 l0 -2.5384 c0 -0.64307 0.54153 -1.1846 1.1846 -1.1846 l15.197 0 c0.67692 0 1.2185 0.54153 1.2185 1.1846 l0 2.5384 c0 0.64307 -0.54153 1.1846 -1.2185 1.1846 l-15.197 0 z M163.44182015454163 8.461892428191902 c0.67692 0 1.1846 0.54153 1.1846 1.1846 l0 2.4708 c0 0.67692 -0.50769 1.2185 -1.1846 1.2185 l-16.72 0 c-0.64307 0 -1.1846 -0.54153 -1.1846 -1.2185 l0 -2.4708 c0 -0.64307 0.54153 -1.1846 1.1846 -1.1846 l16.72 0 z M185.2722564678531 21.017892428191903 c1.9292 1.2185 2.9784 3.0123 2.9784 5.1784 c0 2.5384 -0.98153 4.5015 -2.9107 5.8553 c-1.3538 0.98153 -3.1477 1.5569 -5.3138 1.7938 l-0.13538 0 c-0.27077 0 -0.57538 -0.10154 -0.77846 -0.30461 c-0.27077 -0.23692 -0.40615 -0.54153 -0.40615 -0.87999 l0 -2.4369 c0 -0.60923 0.47384 -1.1169 1.0492 -1.1846 c3.52 -0.40615 3.52 -2.0308 3.52 -2.7415 c0 -0.50769 -0.16923 -0.84615 -0.60923 -1.1508 c-0.67692 -0.47384 -1.5231 -0.84615 -2.5384 -1.1508 c-0.16923 -0.033846 -0.30461 -0.10154 -0.44 -0.13538 l-0.10154 -0.033846 c-0.98153 -0.27077 -2.0308 -0.54153 -3.1138 -0.77846 c-0.40615 -0.067692 -0.84615 -0.20308 -1.3538 -0.33846 c-0.91384 -0.23692 -1.7938 -0.54153 -2.5723 -0.84615 c-1.2861 -0.54153 -2.4031 -1.2523 -3.2831 -2.1323 c-0.98153 -0.98153 -1.4892 -2.3015 -1.4892 -3.9261 c0 -2.2338 0.87999 -4.0615 2.5723 -5.4492 c1.2185 -1.0154 2.8769 -1.6246 4.9415 -1.8954 c0.33846 -0.033846 0.67692 0.067692 0.94768 0.30461 c0.23692 0.23692 0.3723 0.54153 0.3723 0.87999 l0 2.4369 c0 0.57538 -0.40615 1.0831 -0.98153 1.1846 c-0.33846 0.033846 -0.60923 0.10154 -0.84615 0.16923 c-0.64307 0.23692 -1.1169 0.47384 -1.4215 0.74461 c-0.27077 0.23692 -0.44 0.47384 -0.54153 0.71076 c-0.10154 0.33846 -0.16923 0.71076 -0.16923 1.0831 c0 0.10154 0 0.27077 0.30461 0.57538 c0.33846 0.33846 0.8123 0.60923 1.3877 0.84615 c0.40615 0.16923 0.91384 0.33846 1.4215 0.50769 c0.30461 0.067692 0.60923 0.16923 0.91384 0.23692 c0.94768 0.23692 1.8954 0.47384 2.8769 0.71076 c0.13538 0.033846 0.27077 0.067692 0.44 0.10154 l0.20308 0.067692 c0.87999 0.23692 1.6246 0.44 2.3015 0.67692 c1.0154 0.33846 1.9631 0.77846 2.7754 1.32 z M179.6202564678531 13.368892428191902 c-0.54153 -0.13538 -0.91384 -0.60923 -0.91384 -1.1846 l0 -2.4708 c0 -0.33846 0.16923 -0.67692 0.44 -0.91384 c0.23692 -0.20308 0.60923 -0.30461 0.94768 -0.23692 c1.9631 0.30461 3.5877 0.98153 4.84 2.0308 c1.6923 1.3877 2.6061 3.1815 2.7077 5.3477 c0.033846 0.33846 -0.10154 0.64307 -0.30461 0.87999 c-0.23692 0.23692 -0.54153 0.3723 -0.87999 0.3723 l-2.64 0 c-0.57538 0 -1.0831 -0.44 -1.1508 -1.0492 c-0.13538 -0.84615 -0.50769 -2.0984 -2.7754 -2.7415 c-0.067692 0 -0.10154 0 -0.13538 -0.033846 l-0.13538 0 z M175.6601564678531 28.904392428191905 c0.57538 0.10154 0.94768 0.60923 0.94768 1.1508 l0 2.5046 c0 0.33846 -0.13538 0.67692 -0.40615 0.91384 c-0.20308 0.16923 -0.47384 0.27077 -0.77846 0.27077 l-0.16923 0 c-2.0984 -0.30461 -3.8584 -1.0154 -5.1784 -2.0646 c-1.7261 -1.3877 -2.7415 -3.3507 -2.9784 -5.8553 c-0.033846 -0.33846 0.067692 -0.67692 0.30461 -0.91384 c0.23692 -0.27077 0.54153 -0.40615 0.87999 -0.40615 l2.6738 0 c0.64307 0 1.1508 0.50769 1.1846 1.1169 c0.067692 1.1508 0.60923 1.9969 1.6584 2.6061 c0.54153 0.30461 1.1508 0.50769 1.8615 0.67692 z M200.90945992059008 28.8705924281919 c0.54153 0.16923 0.87999 0.64307 0.87999 1.1846 l0 2.6061 c0 0.33846 -0.16923 0.67692 -0.44 0.91384 c-0.20308 0.16923 -0.47384 0.27077 -0.74461 0.27077 c-0.10154 0 -0.16923 0 -0.23692 -0.033846 c-2.1323 -0.40615 -3.9261 -1.3877 -5.4153 -2.9107 c-2.0308 -2.0646 -3.0461 -4.84 -3.0461 -8.1907 l0 -13.031 c0 -0.67692 0.54153 -1.2185 1.1846 -1.2185 l2.6061 0 c0.67692 0 1.2185 0.54153 1.2185 1.2185 l0 13.098 c0 2.1661 0.57538 3.7569 1.8277 4.9077 c0.60923 0.57538 1.32 0.98153 2.1661 1.1846 z M212.5864599205901 8.461892428191902 c0.67692 0 1.2185 0.54153 1.2185 1.2185 l0 13.031 c0 3.3507 -1.0154 6.1261 -3.0461 8.1907 c-1.4892 1.5231 -3.2831 2.5046 -5.4153 2.9107 c-0.067692 0.033846 -0.13538 0.033846 -0.23692 0.033846 c-0.27077 0 -0.54153 -0.10154 -0.74461 -0.27077 c-0.30461 -0.23692 -0.44 -0.57538 -0.44 -0.94768 l0 -2.6061 c0 -0.50769 0.33846 -0.98153 0.87999 -1.1508 c0.84615 -0.23692 1.5569 -0.60923 2.1661 -1.1846 c1.2523 -1.1169 1.8277 -2.7415 1.8277 -4.9077 l0 -13.098 c0 -0.67692 0.54153 -1.2185 1.2185 -1.2185 l2.5723 0 z M222.77365261614628 8.461892428191902 c0.64307 0 1.1846 0.54153 1.1846 1.1846 l0 22.677 c0 0.64307 -0.54153 1.1846 -1.1846 1.1846 l-2.5723 0 c-0.64307 0 -1.1846 -0.54153 -1.1846 -1.1846 l0 -22.677 c0 -0.64307 0.54153 -1.1846 1.1846 -1.1846 l2.5723 0 z M235.12725261614628 28.667492428191903 c0.67692 0 1.1846 0.54153 1.1846 1.1846 l0 2.4708 c0 0.64307 -0.50769 1.1846 -1.1846 1.1846 l-7.8861 0 c-0.67692 0 -1.1846 -0.54153 -1.1846 -1.1846 l0 -2.4708 c0 -0.64307 0.50769 -1.1846 1.1846 -1.1846 l7.8861 0 z M241.99815521248695 8.461892428191902 c0.67692 0 1.2185 0.54153 1.2185 1.2185 l0 2.4708 c0 0.67692 -0.54153 1.2185 -1.2185 1.2185 l-3.4861 0 c-0.64307 0 -1.1846 -0.54153 -1.1846 -1.2185 l0 -2.4708 c0 -0.67692 0.54153 -1.2185 1.1846 -1.2185 l3.4861 0 z M257.127555212487 8.461892428191902 c0.64307 0 1.1846 0.54153 1.1846 1.2185 l0 2.4708 c0 0.67692 -0.54153 1.2185 -1.1846 1.2185 l-6.803 0 l0 19.224 c0 0.64307 -0.54153 1.1846 -1.1846 1.1846 l-2.6061 0 c-0.67692 0 -1.2185 -0.54153 -1.2185 -1.1846 l0 -22.914 c0 -0.67692 0.54153 -1.2185 1.2185 -1.2185 l10.594 0 z"></path></g><defs id="SvgjsDefs1317"></defs><g id="SvgjsG1319" fill="#00625a" rel="mainfill" transform="translate(-1.3595988452945935,-15.792261592661006) scale(1.0458451121657455)"><path xmlns="http://www.w3.org/2000/svg" d="M15.8,15.1c-4.7,0-8.5,3.8-8.5,8.5v35v1.9v6.3c0,1.1-0.4,2.2-1.1,3l-4.4,5.4c-0.3,0.4-0.5,0.9-0.5,1.4v2.5  c0,3.2,2.6,5.8,5.8,5.8h85.9c3.2,0,5.8-2.6,5.8-5.8v-2.5c0-0.5-0.2-1-0.5-1.4l-4.3-5.3c-0.7-0.9-1.1-1.9-1.1-3v-5v-3.2v-9.3h0V23.6  c0-4.7-3.8-8.5-8.5-8.5H52.4H15.8z M59.3,76.5c0,1.6-1.3,2.9-2.9,2.9H43.7c-1.6,0-2.9-1.3-2.9-2.9v-0.6h18.5V76.5z M84.3,23.6  C84.3,23.6,84.3,23.6,84.3,23.6l0,35v2.3v0.6h0v0.4v5.5H15.8v-6.5v-2.3v-35c0,0,0,0,0,0h40.5H84.3z M32.1,46.9c0-9.4,7.6-17,17-17  v17h17c0,9.4-7.6,17-17,17C39.7,63.9,32.1,56.3,32.1,46.9z M66.3,44l2.5-2.5c0.1,0.8,0.2,1.6,0.2,2.4L68.9,44H66.3z M52.1,37.4  l8.3-8.3c0.5,0.3,1.1,0.6,1.6,1L52.1,40V37.4z M52.1,34.9l0-2.6l4.6-4.6c0.7,0.2,1.3,0.4,1.9,0.7L52.1,34.9z M54.5,27.2l-2.4,2.4  v-2.6l0,0C52.9,27,53.7,27.1,54.5,27.2z M55.9,44l9.9-9.9c0.4,0.5,0.7,1,1,1.6L58.5,44H55.9z M52.1,44l0-1.3l11.3-11.3  c0.2,0.2,0.5,0.4,0.7,0.6c0.2,0.2,0.4,0.4,0.6,0.7L53.3,44H52.1z M61.1,44l6.5-6.5c0.3,0.6,0.5,1.3,0.7,1.9L63.7,44H61.1z"></path></g></svg>